{
  "asset": {
    "generator": "glTF-Transform v4.0.2",
    "version": "2.0",
    "extras": {
      "author": "SebastianSosnowski (https://sketchfab.com/SebastianSosnowski)",
      "license": "CC-BY-4.0 (http://creativecommons.org/licenses/by/4.0/)",
      "source": "https://sketchfab.com/3d-models/saturn-planet-9ab1eb3bb97f4e4a9305c0aae2d280a6",
      "title": "Saturn (planet)"
    }
  },
  "accessors": [
    {
      "type": "VEC3",
      "componentType": 5126,
      "count": 266,
      "bufferView": 0,
      "byteOffset": 0
    },
    {
      "type": "VEC3",
      "componentType": 5126,
      "count": 266,
      "max": [11.20442008972168, 11.20442008972168, 0],
      "min": [-11.20442008972168, -11.20442008972168, 0],
      "bufferView": 0,
      "byteOffset": 12
    },
    {
      "type": "VEC2",
      "componentType": 5126,
      "count": 266,
      "bufferView": 0,
      "byteOffset": 24
    },
    {
      "type": "SCALAR",
      "componentType": 5125,
      "count": 792,
      "bufferView": 1,
      "byteOffset": 0
    },
    {
      "type": "SCALAR",
      "componentType": 5125,
      "count": 11904,
      "bufferView": 1,
      "byteOffset": 3168
    },
    {
      "type": "SCALAR",
      "componentType": 5125,
      "count": 11904,
      "bufferView": 1,
      "byteOffset": 50784
    },
    {
      "type": "VEC3",
      "componentType": 5126,
      "count": 2143,
      "bufferView": 2,
      "byteOffset": 0
    },
    {
      "type": "VEC3",
      "componentType": 5126,
      "count": 2143,
      "max": [5, 5, 5],
      "min": [-5, -5, -5],
      "bufferView": 2,
      "byteOffset": 12
    },
    {
      "type": "VEC2",
      "componentType": 5126,
      "count": 2143,
      "bufferView": 2,
      "byteOffset": 24
    },
    {
      "type": "VEC3",
      "componentType": 5126,
      "count": 2143,
      "bufferView": 3,
      "byteOffset": 0
    },
    {
      "type": "VEC3",
      "componentType": 5126,
      "count": 2143,
      "max": [5, 5, 5],
      "min": [-5, -5, -5],
      "bufferView": 3,
      "byteOffset": 12
    },
    {
      "type": "VEC2",
      "componentType": 5126,
      "count": 2143,
      "bufferView": 3,
      "byteOffset": 24
    }
  ],
  "bufferViews": [
    {
      "buffer": 0,
      "byteOffset": 0,
      "byteLength": 8512,
      "byteStride": 32,
      "target": 34962
    },
    { "buffer": 0, "byteOffset": 8512, "byteLength": 98400, "target": 34963 },
    {
      "buffer": 0,
      "byteOffset": 106912,
      "byteLength": 68576,
      "byteStride": 32,
      "target": 34962
    },
    {
      "buffer": 0,
      "byteOffset": 175488,
      "byteLength": 68576,
      "byteStride": 32,
      "target": 34962
    }
  ],
  "samplers": [
    { "magFilter": 9729, "minFilter": 9987, "wrapS": 10497, "wrapT": 10497 }
  ],
  "textures": [
    { "source": 0, "sampler": 0 },
    { "source": 1, "sampler": 0 },
    { "source": 2, "sampler": 0 }
  ],
  "images": [
    {
      "name": "textures/Material_63_baseColor.jpg",
      "mimeType": "image/jpeg",
      "uri": "textures/Material_63_baseColor.jpg"
    },
    {
      "name": "textures/Material_50_baseColor.jpg",
      "mimeType": "image/jpeg",
      "uri": "textures/Material_50_baseColor.jpg"
    },
    {
      "name": "textures/Material_62_baseColor.jpg",
      "mimeType": "image/jpeg",
      "uri": "textures/Material_62_baseColor.jpg"
    }
  ],
  "buffers": [{ "uri": "scene.bin", "byteLength": 244064 }],
  "materials": [
    {
      "name": "Material_63",
      "alphaMode": "BLEND",
      "doubleSided": true,
      "pbrMetallicRoughness": {
        "roughnessFactor": 0.0743939486,
        "metallicFactor": 0,
        "baseColorTexture": { "index": 0 }
      },
      "emissiveFactor": [
        0.1568627450980392, 0.1568627450980392, 0.1568627450980392
      ]
    },
    {
      "name": "Material_50",
      "pbrMetallicRoughness": {
        "roughnessFactor": 0.6865151608,
        "metallicFactor": 0,
        "baseColorTexture": { "index": 1 }
      }
    },
    {
      "name": "Material_62",
      "alphaMode": "BLEND",
      "pbrMetallicRoughness": {
        "baseColorFactor": [
          0.7098039215686275, 0.7098039215686275, 0.7098039215686275,
          0.23196970621744795
        ],
        "roughnessFactor": 0.5713636456,
        "metallicFactor": 0,
        "baseColorTexture": { "index": 2 }
      },
      "emissiveFactor": [0.01568627450980392, 0.00392156862745098, 0]
    }
  ],
  "meshes": [
    {
      "primitives": [
        {
          "attributes": { "NORMAL": 0, "POSITION": 1, "TEXCOORD_0": 2 },
          "mode": 4,
          "material": 0,
          "indices": 3
        }
      ]
    },
    {
      "primitives": [
        {
          "attributes": { "NORMAL": 6, "POSITION": 7, "TEXCOORD_0": 8 },
          "mode": 4,
          "material": 1,
          "indices": 4
        }
      ]
    },
    {
      "primitives": [
        {
          "attributes": { "NORMAL": 9, "POSITION": 10, "TEXCOORD_0": 11 },
          "mode": 4,
          "material": 2,
          "indices": 5
        }
      ]
    }
  ],
  "nodes": [
    { "name": "Saturn Rings_Material #63_0", "mesh": 0 },
    {
      "name": "Saturn Rings",
      "rotation": [-0.7071068286895664, 0, 0, 0.7071067336835255],
      "scale": [100, 100.00001525878996, 100.00001525878996],
      "children": [0]
    },
    { "name": "Saturn_Material #50_0", "mesh": 1 },
    {
      "name": "Saturn",
      "rotation": [
        -0.5916338374937112, -0.3872587407105428, -0.38725875253236425,
        0.591633909577844
      ],
      "scale": [99.99999475932958, 99.99999170663658, 99.9999923706056],
      "children": [2]
    },
    { "name": "Saturn Clouds_Material #62_0", "mesh": 2 },
    {
      "name": "Saturn Clouds",
      "rotation": [
        0.28427795400600664, 0.6474457852717532, 0.6474457852717546,
        -0.2842779540060062
      ],
      "scale": [101.00000538690449, 101.00000538690465, 101.00000762939469],
      "children": [4]
    },
    { "name": "RootNode", "children": [1, 3, 5] },
    { "name": "Object_2", "children": [6] },
    {
      "name": "56fb5d81d5a845599d5e60534f293915.fbx",
      "rotation": [0.7071067690849298, 0, 0, 0.7071067932881652],
      "children": [7]
    },
    {
      "name": "Sketchfab_model",
      "rotation": [-0.7071067690849311, 0, 0, 0.7071067932881638],
      "scale": [
        0.002071182942017913, 0.0020711829420179137, 0.0020711829420179137
      ],
      "children": [8]
    }
  ],
  "scenes": [{ "nodes": [9] }],
  "scene": 0
}
