{
  "asset": {
    "generator": "glTF-Transform v4.0.2",
    "version": "2.0",
    "extras": {
      "author": "SebastianSosnowski (https://sketchfab.com/SebastianSosnowski)",
      "license": "CC-BY-4.0 (http://creativecommons.org/licenses/by/4.0/)",
      "source": "https://sketchfab.com/3d-models/uranus-c71db869b65945879eaa653307c3a329",
      "title": "Uranus"
    }
  },
  "accessors": [
    {
      "type": "VEC3",
      "componentType": 5126,
      "count": 2143,
      "max": [441.064453125, 441.064453125, 441.064453125],
      "min": [-441.064453125, -441.064453125, -441.064453125],
      "bufferView": 0,
      "byteOffset": 0
    },
    {
      "type": "VEC3",
      "componentType": 5126,
      "count": 2143,
      "bufferView": 0,
      "byteOffset": 12
    },
    {
      "type": "VEC2",
      "componentType": 5126,
      "count": 2143,
      "bufferView": 0,
      "byteOffset": 24
    },
    {
      "type": "SCALAR",
      "componentType": 5125,
      "count": 11904,
      "bufferView": 1,
      "byteOffset": 0
    },
    {
      "type": "SCALAR",
      "componentType": 5125,
      "count": 11904,
      "bufferView": 1,
      "byteOffset": 47616
    },
    {
      "type": "SCALAR",
      "componentType": 5125,
      "count": 408,
      "bufferView": 1,
      "byteOffset": 95232
    },
    {
      "type": "VEC3",
      "componentType": 5126,
      "count": 2143,
      "max": [441.064453125, 441.064453125, 441.064453125],
      "min": [-441.064453125, -441.064453125, -441.064453125],
      "bufferView": 2,
      "byteOffset": 0
    },
    {
      "type": "VEC3",
      "componentType": 5126,
      "count": 2143,
      "bufferView": 2,
      "byteOffset": 12
    },
    {
      "type": "VEC4",
      "componentType": 5126,
      "count": 2143,
      "bufferView": 2,
      "byteOffset": 24
    },
    {
      "type": "VEC2",
      "componentType": 5126,
      "count": 2143,
      "bufferView": 2,
      "byteOffset": 40
    },
    {
      "type": "VEC3",
      "componentType": 5126,
      "count": 138,
      "max": [1000, 1000, 0],
      "min": [-1000, -1000, 0],
      "bufferView": 3,
      "byteOffset": 0
    },
    {
      "type": "VEC3",
      "componentType": 5126,
      "count": 138,
      "bufferView": 3,
      "byteOffset": 12
    },
    {
      "type": "VEC2",
      "componentType": 5126,
      "count": 138,
      "bufferView": 3,
      "byteOffset": 24
    },
    {
      "type": "SCALAR",
      "componentType": 5126,
      "count": 101,
      "max": [3.3333332538604736],
      "min": [0],
      "bufferView": 4,
      "byteOffset": 0
    },
    {
      "type": "VEC3",
      "componentType": 5126,
      "count": 101,
      "bufferView": 4,
      "byteOffset": 404
    },
    {
      "type": "SCALAR",
      "componentType": 5126,
      "count": 101,
      "max": [3.3333332538604736],
      "min": [0],
      "bufferView": 4,
      "byteOffset": 1616
    },
    {
      "type": "VEC4",
      "componentType": 5126,
      "count": 101,
      "bufferView": 4,
      "byteOffset": 2020
    },
    {
      "type": "SCALAR",
      "componentType": 5126,
      "count": 101,
      "max": [3.3333332538604736],
      "min": [0],
      "bufferView": 4,
      "byteOffset": 3636
    },
    {
      "type": "VEC3",
      "componentType": 5126,
      "count": 101,
      "bufferView": 4,
      "byteOffset": 4040
    },
    {
      "type": "SCALAR",
      "componentType": 5126,
      "count": 101,
      "max": [3.3333332538604736],
      "min": [0],
      "bufferView": 4,
      "byteOffset": 5252
    },
    {
      "type": "VEC4",
      "componentType": 5126,
      "count": 101,
      "bufferView": 4,
      "byteOffset": 5656
    }
  ],
  "bufferViews": [
    {
      "buffer": 0,
      "byteOffset": 0,
      "byteLength": 68576,
      "byteStride": 32,
      "target": 34962
    },
    { "buffer": 0, "byteOffset": 68576, "byteLength": 96864, "target": 34963 },
    {
      "buffer": 0,
      "byteOffset": 165440,
      "byteLength": 102864,
      "byteStride": 48,
      "target": 34962
    },
    {
      "buffer": 0,
      "byteOffset": 268304,
      "byteLength": 4416,
      "byteStride": 32,
      "target": 34962
    },
    { "buffer": 0, "byteOffset": 272720, "byteLength": 7272 }
  ],
  "samplers": [
    { "magFilter": 9729, "minFilter": 9987, "wrapS": 10497, "wrapT": 10497 }
  ],
  "textures": [
    { "source": 0, "sampler": 0 },
    { "source": 1, "sampler": 0 },
    { "source": 2, "sampler": 0 },
    { "source": 4, "sampler": 0 },
    { "source": 6, "sampler": 0 },
    { "source": 5, "sampler": 0 },
    { "source": 3, "sampler": 0 }
  ],
  "images": [
    { "mimeType": "image/jpeg", "uri": "textures/material_baseColor.jpeg" },
    { "mimeType": "image/png", "uri": "textures/material_1_baseColor.png" },
    { "mimeType": "image/jpeg", "uri": "textures/material_1_normal.jpeg" },
    { "mimeType": "image/png", "uri": "textures/material_1_transmission.png" },
    { "mimeType": "image/png", "uri": "textures/material_2_baseColor.png" },
    {
      "mimeType": "image/png",
      "uri": "textures/material_2_metallicRoughness.png"
    },
    { "mimeType": "image/jpeg", "uri": "textures/material_2_emissive.jpeg" }
  ],
  "buffers": [{ "uri": "scene.bin", "byteLength": 279992 }],
  "materials": [
    {
      "name": "material",
      "doubleSided": true,
      "pbrMetallicRoughness": {
        "roughnessFactor": 0.7009299624853316,
        "metallicFactor": 0,
        "baseColorTexture": { "index": 0 }
      }
    },
    {
      "name": "material_1",
      "alphaMode": "BLEND",
      "pbrMetallicRoughness": {
        "roughnessFactor": 0.9441368890185993,
        "metallicFactor": 0,
        "baseColorTexture": { "index": 1 }
      },
      "normalTexture": { "index": 2 },
      "extensions": {
        "KHR_materials_transmission": {
          "transmissionFactor": 1,
          "transmissionTexture": { "index": 6 }
        }
      }
    },
    {
      "name": "material_2",
      "alphaMode": "BLEND",
      "doubleSided": true,
      "pbrMetallicRoughness": {
        "baseColorFactor": [0, 0, 0, 0.019950568192182112],
        "roughnessFactor": 0.11115316564215749,
        "metallicFactor": 0,
        "baseColorTexture": { "index": 3 },
        "metallicRoughnessTexture": { "index": 5 }
      },
      "emissiveFactor": [
        0.7467212666216734, 0.7467212666216734, 0.7467212666216734
      ],
      "emissiveTexture": { "index": 4 }
    }
  ],
  "meshes": [
    {
      "name": "Uranus_1_0",
      "primitives": [
        {
          "attributes": { "NORMAL": 1, "POSITION": 0, "TEXCOORD_0": 2 },
          "mode": 4,
          "material": 0,
          "indices": 3
        }
      ]
    },
    {
      "name": "Uranus_clouds_2_0",
      "primitives": [
        {
          "attributes": {
            "NORMAL": 7,
            "POSITION": 6,
            "TANGENT": 8,
            "TEXCOORD_0": 9
          },
          "mode": 4,
          "material": 1,
          "indices": 4
        }
      ]
    },
    {
      "name": "Ring_3_0",
      "primitives": [
        {
          "attributes": { "NORMAL": 11, "POSITION": 10, "TEXCOORD_0": 12 },
          "mode": 4,
          "material": 2,
          "indices": 5
        }
      ]
    }
  ],
  "nodes": [
    {
      "name": "Sketchfab_model",
      "rotation": [-0.7071067811865475, 0, 0, 0.7071067811865476],
      "children": [1]
    },
    {
      "name": "c1957ceccd8246adba02dfc94cd45727.fbx",
      "rotation": [0.7071067811865475, 0, 0, 0.7071067811865476],
      "children": [2]
    },
    { "name": "Object_2", "children": [3] },
    { "name": "RootNode", "children": [4, 6, 8] },
    {
      "name": "Uranus",
      "translation": [0, 366.033935546875, -3.3881317890172014e-21],
      "rotation": [1, 0, 0, 2.1855694143368964e-8],
      "scale": [100, 100, 100],
      "children": [5]
    },
    { "name": "Uranus_1_0", "mesh": 0 },
    {
      "name": "Uranus_clouds",
      "translation": [
        -6.728155432154915e-21, 366.033935546875, 2.449399933578681e-21
      ],
      "rotation": [
        1, -2.9379156885056545e-8, -1.8890526672083038e-15,
        2.1545149664348173e-8
      ],
      "scale": [101.44039916992188, 101.44039916992188, 102.90250396728516],
      "children": [7]
    },
    { "name": "Uranus_clouds_2_0", "mesh": 1 },
    {
      "name": "Ring",
      "rotation": [1, 0, 0, 2.1855694143368964e-8],
      "scale": [100, 100, 100],
      "children": [9]
    },
    { "name": "Ring_3_0", "mesh": 2 }
  ],
  "animations": [
    {
      "name": "Take 001",
      "samplers": [
        { "input": 13, "output": 14, "interpolation": "LINEAR" },
        { "input": 15, "output": 16, "interpolation": "LINEAR" },
        { "input": 17, "output": 18, "interpolation": "LINEAR" },
        { "input": 19, "output": 20, "interpolation": "LINEAR" }
      ],
      "channels": [
        { "sampler": 0, "target": { "node": 4, "path": "translation" } },
        { "sampler": 1, "target": { "node": 4, "path": "rotation" } },
        { "sampler": 2, "target": { "node": 6, "path": "translation" } },
        { "sampler": 3, "target": { "node": 6, "path": "rotation" } }
      ]
    }
  ],
  "scenes": [{ "name": "Sketchfab_Scene", "nodes": [0] }],
  "scene": 0,
  "extensionsUsed": ["KHR_materials_transmission"]
}
